<svg width="24" height="24" fill="#1a1400" version="1.1" viewBox="0 0 24 14.963" xmlns="http://www.w3.org/2000/svg" xmlns:cc="http://creativecommons.org/ns#" xmlns:dc="http://purl.org/dc/elements/1.1/" xmlns:rdf="http://www.w3.org/1999/02/22-rdf-syntax-ns#">
                          <path d="m12.027-4.5188h-0.0546c-6.6123 0-11.973 5.3603-11.973 11.973v0.0546c0 6.6123 5.3604 11.973 11.973 11.973h0.0546c6.6123 0 11.973-5.3604 11.973-11.973v-0.0546c0-6.6124-5.3604-11.973-11.973-11.973z" fill="#000"></path>
                          <g transform="matrix(.46046 0 0 .46046 7.5822 -1.7004)" fill="#fff">
                            <path d="m2.47 5.8c-0.82 0.97-1.46 2.1-1.85 3.34 2.22-0.5 5.17-0.62 6.84-0.75 0.52-2.14 2-3.77 4.48-3.66 1.07 0.05 2.01 0.74 2.66 1.8 0.48-0.51 1.12-0.85 1.97-0.97 0.06 0 0.19-0.01 0.29-0.01-1.76-1.92-4.27-3.14-7.08-3.14-0.51 0-1.01 0.05-1.51 0.13-0.1 0-0.23 0.02-0.4 0.06h-0.04-0.04c-1.94 0.47-3.4 0.09-4.23-1.04-0.09-0.12-0.44-0.65-0.55-1.58-0.61 0.63-1.01 1.67-0.67 2.78 0.27 0.88 0.78 1.35 1.33 1.62-0.84 0.05-1.54-0.11-2.24-0.64-0.41-0.31-0.67-0.65-1.1-1.54-0.4 0.63-0.36 1.33-0.28 1.69 0.1 0.48 0.35 1.02 0.67 1.33 0.49 0.48 1.19 0.59 1.76 0.58z"></path>
                            <ellipse cx="11.95" cy="10.22" rx="2.25" ry="3.85"></ellipse>
                            <ellipse cx="16.9" cy="10.08" rx="1.76" ry="3.06"></ellipse>
                            <path d="m8.19 33.71s-0.18-4.72 1.6-8.24c0.63-1.23 2.06-2.93 3.13-3.85 0.57-0.5 1.14-0.92 1.7-1.31 0.29-0.17 0.56-0.35 0.82-0.54 4.73-2.9 8.9-2.26 12.35-1.76 0 0 0.82-2.44-2.56-3.7-1.84-0.68-4.01-1.23-5.82-1.61-0.26 0.47-0.59 0.87-0.98 1.17-0.28 0.21-0.97 0.75-2.24 0.6-0.64-0.08-1.13-0.34-1.52-0.72-0.66 1.09-1.61 1.8-2.71 1.9-3.05 0.26-4.59-2.3-4.69-5.13-2.29 0.22-5.41 1.63-7.07 2.45v24.53c2.45 1.26 5.14 2.09 8 2.4v-6.19z"></path>
                          </g>
                        </svg>
