<svg role="img" viewBox="0 0 24 24" xmlns="http://www.w3.org/2000/svg"><path d="M 12,0 A 12,12 0 1 0 24,12 12.012692,12.012692 0 0 0 12,0 Z M 8.9573077,16.615385 H 15.042692 C 14.423077,18.731539 13.384615,20.638846 12,22.141154 10.615385,20.638846 9.5769234,18.731539 8.9573077,16.615385 Z M 8.5384615,14.769231 a 16.813846,16.813846 0 0 1 0,-5.5384618 h 6.9230775 a 16.813846,16.813846 0 0 1 0,5.5384618 z M 1.8461539,12 A 10.108846,10.108846 0 0 1 2.2303846,9.2307692 h 4.4376923 a 18.668077,18.668077 0 0 0 0,5.5384618 H 2.2303846 A 10.108846,10.108846 0 0 1 1.8461539,12 Z M 15.042692,7.3846154 H 8.9573077 C 9.5769234,5.2684615 10.615385,3.3611539 12,1.8588461 c 1.384615,1.5023078 2.423077,3.4096154 3.042692,5.5257693 z m 2.289231,1.8461538 h 4.437692 a 10.171154,10.171154 0 0 1 0,5.5384618 h -4.437692 a 18.668077,18.668077 0 0 0 0,-5.5384618 z M 21.042692,7.3846154 H 16.954615 A 16.429615,16.429615 0 0 0 14.616923,2.1923077 10.196539,10.196539 0 0 1 21.042692,7.3846154 Z M 9.3830766,2.1923077 A 16.429615,16.429615 0 0 0 7.0453846,7.3846154 H 2.9573077 A 10.196539,10.196539 0 0 1 9.3830766,2.1923077 Z M 2.9573077,16.615385 h 4.0880769 a 16.429615,16.429615 0 0 0 2.337692,5.192307 10.196539,10.196539 0 0 1 -6.4257689,-5.192307 z m 11.6596153,5.192307 a 16.429615,16.429615 0 0 0 2.337692,-5.192307 h 4.088077 a 10.196539,10.196539 0 0 1 -6.425769,5.192307 z" /></svg>